<svg width="16" height="16" viewBox="0 0 16 16" xmlns="http://www.w3.org/2000/svg">
    <g fill="#FFF" fill-rule="evenodd">
        <path d="M14.693 5.617A7.963 7.963 0 0 1 16 10v1a1 1 0 0 1-1 1h-3c-.5 0-1-.247-1-1 0-.162-.008-.324-.025-.485l.882-1.15 2.17-2.865zM8 2c1.625 0 3.136.484 4.398 1.317L8.2 6.5A4.952 4.952 0 0 0 6 6c-3 0-5 3-5 6H0v-2a8 8 0 0 1 8-8z"/>
        <path d="M4.91 13.103a1.504 1.504 0 0 0 2.128-.006c.392-.392 2.747-3.455 7.063-9.188-5.73 4.319-8.792 6.675-9.185 7.067a1.504 1.504 0 0 0-.005 2.127z" stroke="#FFF" stroke-linejoin="round"/>
    </g>
</svg>
