<svg width="16" height="16" viewBox="0 0 16 16" xmlns="http://www.w3.org/2000/svg">
    <g fill="none" fill-rule="evenodd">
        <path d="m3 5 3.486-2.091A1 1 0 0 1 8 3.766v8.468a1 1 0 0 1-1.514.857L3 11H1a1 1 0 0 1-1-1V6a1 1 0 0 1 1-1h2z" fill="#FFF"/>
        <path d="M11.75 15a8.978 8.978 0 0 0 3.352-7.004A8.977 8.977 0 0 0 11.762 1" stroke="#FFF" stroke-width="2" stroke-linecap="round"/>
        <path d="M9 11.01a3.854 3.854 0 0 0 1.439-3.006c0-1.213-.56-2.295-1.434-3.003" stroke="#FFF" stroke-linecap="round"/>
        <path d="M10 13a6.413 6.413 0 0 0 2.394-5.003c0-2.018-.93-3.818-2.385-4.996" stroke="#FFF" stroke-linecap="round"/>
    </g>
</svg>
