<svg width="16" height="16" viewBox="0 0 16 16" xmlns="http://www.w3.org/2000/svg">
    <g fill="#041F74" fill-rule="evenodd">
        <path d="M7 9v1H.5a.5.5 0 0 1-.09-.992L.5 9H7zm0-2v1H.5a.5.5 0 0 1-.09-.992L.5 7H7zm0-2v1H.5a.5.5 0 0 1-.09-.992L.5 5H7zm8.5 0a.5.5 0 0 1 .09.992L15.5 6h-2.255l-1.222-1H15.5zM7 3v1H.5a.5.5 0 0 1-.09-.992L.5 3H7zm7.5 0a.5.5 0 0 1 .09.992L14.5 4h-3.699L9.579 3H14.5zm1-2a.5.5 0 0 1 .09.992L15.5 2H8.063a.986.986 0 0 0-.12 0H.5a.5.5 0 0 1-.09-.992L.5 1h15z" fill-rule="nonzero"/>
        <path d="m8 3 7.19 5.883a.5.5 0 0 1-.195.872l-2.154.537 2.1 4.307a.5.5 0 0 1-.23.668l-1.053.514a.5.5 0 0 1-.669-.23l-2.125-4.358-2.084 1.411A.5.5 0 0 1 8 12.19V3z"/>
    </g>
</svg>
