<svg width="16" height="16" viewBox="0 0 16 16" xmlns="http://www.w3.org/2000/svg">
    <g fill="#041F74" fill-rule="nonzero">
        <path d="M14.813 16.226c.476 0 .82-.168 1.034-.503.213-.335.204-.76-.028-1.271L11.1 4.189c-.183-.415-.408-.716-.676-.905A1.579 1.579 0 0 0 9.49 3c-.354 0-.665.095-.933.284-.269.189-.5.49-.695.905L3.178 14.452c-.231.5-.237.92-.018 1.262.22.341.586.512 1.098.512.378 0 .67-.095.878-.284.207-.189.402-.497.585-.923l.75-1.757h6.019l.768 1.757c.17.414.369.72.595.914.225.195.545.293.96.293zm-3.256-5.177H7.423l2.03-4.866h.037l2.067 4.866zM5.452 6.104c.22 0 .379-.077.477-.232.099-.155.094-.35-.013-.587L3.738.55A.977.977 0 0 0 3.426.13.729.729 0 0 0 2.996 0a.729.729 0 0 0-.431.13c-.124.088-.231.227-.321.419L.082 5.285c-.107.231-.11.425-.008.583.101.157.27.236.507.236.174 0 .31-.043.405-.13.095-.088.186-.23.27-.427l.346-.81H4.38l.354.81c.08.191.17.332.275.422.104.09.252.135.443.135zM3.95 3.714H2.041l.937-2.245h.017l.954 2.246z"/>
    </g>
</svg>
