<svg width="24" height="24" viewBox="0 0 24 24" xmlns="http://www.w3.org/2000/svg">
    <path d="M5.448 8.4H.303v15.353H5.45V8.401zm.34-4.747C5.753 2.146 4.67 1 2.91 1 1.15 1 0 2.146 0 3.653c0 1.473 1.116 2.652 2.843 2.652h.033c1.795 0 2.911-1.18 2.911-2.652zm7.652 20.1v-8.572c0-.459.034-.918.17-1.245.371-.918 1.218-1.867 2.64-1.867 1.86 0 2.606 1.408 2.606 3.472v8.212H24v-8.802c0-4.716-2.538-6.91-5.923-6.91-2.775 0-3.993 1.538-4.67 2.586h.034V8.401H8.296c.067 1.44 0 15.353 0 15.353h5.144z" fill="#FFF" fill-rule="nonzero"/>
</svg>
