<svg width="46" height="46" xmlns="http://www.w3.org/2000/svg"><g fill="none" fill-rule="evenodd"><path d="M36.94 39.82C33.338 37.456 28.42 36 23 36c-5.373 0-10.251 1.43-13.845 3.757" stroke="#004DF5" fill="#FFF" stroke-linejoin="round"/><path d="M23.325 30.874c1.5 0 2.837.698 3.704 1.787a2.367 2.367 0 00.847 4.24 4.734 4.734 0 01-9.186-.335 1.992 1.992 0 00.546-3.346 4.732 4.732 0 014.089-2.346z" stroke="#004DF5" fill="#FFF" stroke-linejoin="round"/><path d="M22.895 34.004a8.32 8.32 0 01-8.32-8.32c0-.43-.445-2.236-1.421-3.36-.977-1.125-1.115-1.296-1.035-2.604.139-2.25 1.747-3.85 3.975-5.376 2.227-1.526 4.6.245 6.801.245 2.496 0 4.736-1.674 6.26.066 1.284 1.464 2.061 8.93 2.061 11.028a8.32 8.32 0 01-8.32 8.321z" stroke="#004DF5" fill="#FFF" stroke-linejoin="round"/><path d="M16.084 10.771a6.086 6.086 0 015.997 5.051 5.24 5.24 0 00-7.616 4.671c0 .98.056 2.146.168 3.5C11.6 23.633 10 20.043 10 16.857a6.084 6.084 0 016.084-6.085z" fill="#004DF5"/><path d="M15.11 26.713a1.996 1.996 0 11.246-2.813" stroke="#004DF5" fill="#FFF" stroke-linecap="round" stroke-linejoin="round"/><path d="M19.397 7h6.232a7 7 0 017 7v3.371h0a6.438 6.438 0 00-4.553-1.885H21.89a5.418 5.418 0 01-5.289-4.243l-.132-.592A3 3 0 0119.397 7z" stroke="#004DF5" fill="#004DF5" stroke-linecap="round" stroke-linejoin="round"/><g transform="translate(18.494 18.5)"><path d="M6.583 5.017c.126.251.358.434.642.585.476.255.868.567.868 1.064 0 .618-.563 1.119-1.258 1.119-.506 0-.942-.266-1.142-.648" stroke="#004DF5" stroke-linecap="round" stroke-linejoin="round"/><circle fill="#004DF5" cx="9.697" cy="3.738" r="1"/><circle fill="#004DF5" cx="2.567" cy="4.309" r="1"/><path d="M3.355 1.748c-.665-.38-1.33-.475-1.996-.285C.81 1.62.355 2.005 0 2.618M11.326 1.846a2.415 2.415 0 00-1.449-.76c-.567-.081-1.138.087-1.712.502" stroke="#004DF5" stroke-linecap="round" stroke-linejoin="round"/><path d="M8.575 8.008c.142.562.129 1.16.043 1.586a3.725 3.725 0 01-.773 1.602c-.35.408-.807.712-1.357.791-2.243.32-3.23-1.701-3.23-1.701s-.197-.405-.269-.992a5.5 5.5 0 00.84.287c1.532.383 3.342.04 3.987-.476.257-.206.528-.599.76-1.097z" stroke="#004DF5" fill="#FFF" stroke-linecap="round" stroke-linejoin="round"/></g><circle stroke="#004DF5" stroke-width="2" cx="23" cy="23" r="22"/></g></svg>
