<svg width="64" height="64" xmlns="http://www.w3.org/2000/svg"><g fill="none" fill-rule="evenodd"><g transform="translate(0 9)"><path d="M32 1.5c8.422 0 16.047 3.414 21.567 8.933C59.087 15.953 62.5 23.578 62.5 32c0 1.264-.493 5.056-1.457 11.377a2.495 2.495 0 01-.842 1.52 2.495 2.495 0 01-1.63.603h0H5.43c-.618 0-1.19-.226-1.63-.604-.44-.378-.749-.91-.842-1.52C1.994 37.035 1.5 33.243 1.5 32c0-8.422 3.414-16.047 8.933-21.567C15.953 4.913 23.578 1.5 32 1.5z" stroke="#041F74" stroke-width="3" fill="#CEDAF3"/><path d="M32 7c13.807 0 25 11.193 25 25 0 .335-.007.669-.02 1H42.955c.03-.329.045-.663.045-1 0-6.075-4.925-11-11-11s-11 4.925-11 11c0 .337.015.671.045 1H7.02A25.44 25.44 0 017 32C7 18.193 18.193 7 32 7z" stroke="#041F74" stroke-width="2" fill="#3DBB56" stroke-linejoin="round"/><path d="M18.698 10.829l7.207 12.012A10.99 10.99 0 0021.045 33H7.019l-.014-.499A25.492 25.492 0 017 32c0-8.918 4.67-16.746 11.698-21.171z" stroke="#041F74" stroke-width="2" fill="#ECDB00" stroke-linejoin="round"/><path d="M45.207 10.829L38 22.84A10.99 10.99 0 0142.86 33h14.026l.014-.499c.003-.166.005-.333.005-.501 0-8.918-4.67-16.746-11.698-21.171z" stroke="#041F74" stroke-width="2" fill="#004DF5" stroke-linejoin="round"/><g stroke="#041F74" stroke-linecap="round" stroke-width="2"><path d="M12.6 22.3L9 20M32 10V6"/></g><path d="M51.4 22.3L55 20" stroke="#041F74" stroke-linecap="round" stroke-width="2"/><circle stroke="#041F74" stroke-width="2" fill="#FFF" stroke-linejoin="round" cx="32" cy="32" r="11"/><path d="M30.098 36.683a5 5 0 006.409-2.988c.63-1.73 1.002-7.625 1.116-17.685-6.379 7.78-9.883 12.535-10.513 14.265a5 5 0 002.988 6.408z" stroke="#041F74" stroke-width="2" fill="#041F74" stroke-linejoin="round"/><path stroke="#041F74" stroke-width="2" stroke-linecap="round" stroke-linejoin="round" d="M8 39h10M46 39h10"/><circle fill="#CEDAF3" cx="32" cy="32" r="2"/></g><path stroke="#041F74" stroke-width="3" stroke-linecap="round" d="M62.571 8.5v7.071H55.5"/><path d="M61.827 14.847C54.502 6.656 43.853 1.5 32 1.5 19.615 1.5 8.545 7.128 1.208 15.967" stroke="#041F74" stroke-width="3" stroke-linecap="round" stroke-linejoin="round"/><g stroke="#041F74" stroke-linecap="round"><path stroke-width="3" d="M1.5 54.5h61"/><path stroke-width="2" d="M9 63h46M5 59h53"/></g></g></svg>
