<svg width="64" height="64" xmlns="http://www.w3.org/2000/svg" xmlns:xlink="http://www.w3.org/1999/xlink"><defs><circle id="a" cx="33" cy="33" r="32"/></defs><g fill="none" fill-rule="evenodd"><g transform="translate(-1 -1)"><mask id="b" fill="#fff"><use xlink:href="#a"/></mask><use fill="#3DBB56" xlink:href="#a"/><g mask="url(#b)"><g transform="translate(10.5 8.5)"><rect stroke="#041F74" stroke-width="2" fill="#FFF" x="1.5" y="4.5" width="65" height="39" rx="8"/><path d="M26.49 34.508l9.974 1.387c1.73.24 3.24 1.1 4.316 2.337a6.985 6.985 0 011.72 4.596h0V51.5a6.978 6.978 0 01-2.05 4.95 6.978 6.978 0 01-4.95 2.05h0-21a6.978 6.978 0 01-4.95-2.05A6.978 6.978 0 017.5 51.5h0v-8.526c0-1.774.664-3.408 1.768-4.65a6.984 6.984 0 014.41-2.302h0l12.812-1.514z" stroke="#041F74" stroke-width="2" fill="#ECDB00"/><path d="M26.59 28.649c1.8 0 3.404.837 4.445 2.144a2.84 2.84 0 001.017 5.088 5.68 5.68 0 01-11.024-.4 2.397 2.397 0 00.657-4.016 5.675 5.675 0 014.904-2.816z" stroke="#041F74" fill="#EEC2AB" stroke-linejoin="round"/><path d="M26.074 32.405c-5.514 0-9.985-4.47-9.985-9.985 0-.516-.532-2.682-1.705-4.032-1.172-1.35-1.338-1.554-1.241-3.124.166-2.7 2.096-4.62 4.77-6.45 2.673-1.832 5.52.293 8.161.293 2.996 0 5.683-2.01 7.513.08 1.54 1.756 2.472 10.714 2.472 13.233 0 5.515-4.47 9.985-9.985 9.985z" stroke="#041F74" fill="#EEC2AB" stroke-linejoin="round"/><path d="M17.9 4.526c3.61 0 6.609 2.62 7.197 6.062a6.287 6.287 0 00-9.139 5.604c0 1.175.067 2.574.201 4.2-3.637-.434-5.559-4.742-5.559-8.565a7.3 7.3 0 017.3-7.301z" fill="#041F74"/><path d="M16.732 23.655a2.396 2.396 0 11.296-3.375" stroke="#041F74" fill="#EEC2AB" stroke-linecap="round" stroke-linejoin="round"/><path d="M21.128 0h9.626a7 7 0 017 7v5.446h0l-.212-.213a7 7 0 00-4.95-2.05h-8.128a6 6 0 01-5.857-4.699L18.2 3.651A3 3 0 0121.128 0z" stroke="#041F74" fill="#041F74" stroke-linecap="round" stroke-linejoin="round"/><g transform="translate(20.793 13.8)"><path d="M7.9 6.02c.151.302.429.52.77.703.57.306 1.042.68 1.042 1.276 0 .742-.676 1.342-1.51 1.342-.607 0-1.13-.318-1.37-.777" stroke="#041F74" stroke-linecap="round" stroke-linejoin="round"/><circle fill="#041F74" cx="11.636" cy="4.486" r="1"/><circle fill="#041F74" cx="3.08" cy="5.171" r="1"/><path d="M4.027 2.098c-.799-.457-1.598-.57-2.396-.343-.66.19-1.205.651-1.631 1.387M13.59 2.215a2.898 2.898 0 00-1.738-.913c-.68-.096-1.365.105-2.054.604" stroke="#041F74" stroke-linecap="round" stroke-linejoin="round"/><path d="M10.252 9.909a4.448 4.448 0 01-.008 1.584 4.364 4.364 0 01-.906 1.877c-.405.471-.931.825-1.567.915C5.152 14.66 4 12.3 4 12.3a3.97 3.97 0 01-.29-.987c.28.114.569.21.86.282 1.875.469 4.084.04 4.871-.59.271-.216.556-.603.811-1.095z" stroke="#041F74" fill="#FFF" stroke-linecap="round" stroke-linejoin="round"/></g></g></g></g><circle stroke="#041F74" stroke-width="3" cx="32" cy="32" r="30.5"/></g></svg>
