<svg width="64" height="64" xmlns="http://www.w3.org/2000/svg"><g fill="none" fill-rule="evenodd"><path d="M39.983 2.054l8.08 53.9-39.046 5.992-8.08-53.9 39.046-5.992z" stroke="#041F74" stroke-width="3" fill="#FFF"/><path d="M62.637 7.774l-7.09 54.04-39.184-5.003 7.09-54.039 39.184 5.002z" stroke="#041F74" stroke-width="3" fill="#FFF"/><path d="M52 56.5l.5-41.672L39.525 1.646 12 1.5 11.5 56l40.5.5z" stroke="#041F74" stroke-width="3" fill="#FFF"/><g transform="translate(20 9)"><path stroke="#004DF5" stroke-width="3" stroke-linecap="round" stroke-linejoin="round" d="M8.5 2.5h14"/><circle fill="#004DF5" cx="2.5" cy="2.5" r="2.5"/></g><g stroke="#004DF5" stroke-linecap="round" stroke-linejoin="round" stroke-width="2"><path d="M21 18h22M21 23h18"/></g><g fill="#CEDAF3" stroke="#CEDAF3" stroke-linejoin="round" stroke-width="2"><path d="M21 28h4v4h-4zM37 28h4v4h-4zM29 28h4v4h-4z"/></g><g><g transform="translate(20 37)"><path stroke="#004DF5" stroke-width="3" stroke-linecap="round" stroke-linejoin="round" d="M8.5 2.5h14"/><circle fill="#004DF5" cx="2.5" cy="2.5" r="2.5"/></g><g stroke="#004DF5" stroke-linecap="round" stroke-linejoin="round" stroke-width="2"><path d="M21 46h22M21 51h18"/></g></g><path fill="#041F74" d="M53.776 14.776H39V0z"/><path d="M44 34.5l.5 28.264L32 57.323 20.224 63.21 19.5 35l24.5-.5z" stroke="#041F74" stroke-width="3" fill="#ECDB00"/><path stroke="#041F74" stroke-width="3" stroke-linecap="round" d="M27.5 46.5l4 4 6-8"/></g></svg>
