<svg width="64" height="64" xmlns="http://www.w3.org/2000/svg"><g fill="none" fill-rule="evenodd"><path d="M43 1.5l.5 60.5-41.5.5L1.5 2 43 1.5z" stroke="#041F74" stroke-width="3" fill="#041F74"/><path d="M42 2.5l.5 54.5-39.5.5L2.5 3 42 2.5z" stroke="#041F74" stroke-width="3" fill="#FFF"/><circle fill="#929DAF" cx="22.5" cy="60.5" r="1.5"/><g transform="translate(10 10)"><path stroke="#004DF5" stroke-width="3" stroke-linecap="round" stroke-linejoin="round" d="M8.5 2.5h15"/><circle fill="#004DF5" cx="2.5" cy="2.5" r="2.5"/></g><g stroke="#004DF5" stroke-linecap="round" stroke-linejoin="round" stroke-width="2"><path d="M11 19h23M11 24h18"/></g><g fill="#CEDAF3" stroke="#CEDAF3" stroke-linejoin="round" stroke-width="2"><path d="M11 29h4v4h-4zM27 29h4v4h-4zM19 29h4v4h-4z"/></g><g transform="translate(10 38)"><path stroke="#004DF5" stroke-width="3" stroke-linecap="round" stroke-linejoin="round" d="M8.5 2.5h15"/><circle fill="#004DF5" cx="2.5" cy="2.5" r="2.5"/></g><g stroke="#004DF5" stroke-linecap="round" stroke-linejoin="round" stroke-width="2"><path d="M11 47h23M11 52h18"/></g><circle stroke="#041F74" stroke-width="3" fill="#CEDAF3" cx="50" cy="28" r="12.5"/><path d="M20 30.89l14.495 11.86-5.173 1.29 3.195 6.551-4.572 2.23-3.267-6.697L20 49.292V30.89z" stroke="#041F74" stroke-width="2" fill="#FFF" stroke-linejoin="round"/><path stroke="#041F74" stroke-width="2" stroke-linecap="round" stroke-linejoin="round" d="M50 19v9h6"/><circle fill="#041F74" cx="50" cy="28" r="2"/><circle fill="#004DF5" cx="41" cy="28" r="1"/><circle fill="#004DF5" cx="59" cy="28" r="1"/><circle fill="#004DF5" cx="56" cy="34" r="1"/><circle fill="#004DF5" cx="44" cy="34" r="1"/><circle fill="#004DF5" cx="44" cy="22" r="1"/><circle fill="#004DF5" cx="56" cy="22" r="1"/><circle fill="#004DF5" cx="50" cy="37" r="1"/></g></svg>
