<svg width="64" height="64" xmlns="http://www.w3.org/2000/svg"><g fill="none" fill-rule="evenodd" stroke="#041F74"><path stroke-width="3" stroke-linecap="round" d="M4.5 49.5h5v-10h16v-10h16v-10h16v-14"/><path d="M25 45.5l.5 8.5-10.5.5-.5-8.5 10.5-.5z" stroke-width="3" fill="#004DF5"/><path d="M41 35.5l.5 18.5-10.5.5-.5-18.5 10.5-.5z" stroke-width="3" fill="#ECDB00"/><path d="M57 25.5l.5 28.5-10.5.5-.5-28.5 10.5-.5z" stroke-width="3" fill="#3DBB56"/><path stroke-width="3" stroke-linecap="round" d="M1.5 54.5h61"/><path stroke-width="2" stroke-linecap="round" d="M9 63h46M5 59h53"/><path stroke-width="3" stroke-linecap="round" d="M52.5 7l5-5 5 5"/><path d="M6 21a5 5 0 000 10h3l4 4v-4.1a5.002 5.002 0 00-1-9.9H6zM38 1a5 5 0 000 10h3l4 4v-4.1A5.002 5.002 0 0044 1h-6zM22 11a5 5 0 000 10h3l4 4v-4.1a5.002 5.002 0 00-1-9.9h-6z" stroke-width="2" fill="#CEDAF3" stroke-linejoin="round"/></g></svg>
