<svg width="64" height="64" xmlns="http://www.w3.org/2000/svg"><g fill="none" fill-rule="evenodd"><path d="M43 1.5l.5 60.5-41.5.5L1.5 2 43 1.5z" stroke="#041F74" stroke-width="3" fill="#041F74"/><path d="M42 2.5l.5 54.5-39.5.5L2.5 3 42 2.5z" stroke="#041F74" stroke-width="3" fill="#FFF"/><circle fill="#929DAF" cx="22.5" cy="60.5" r="1.5"/><g transform="translate(10 10)"><path stroke="#004DF5" stroke-width="3" stroke-linecap="round" stroke-linejoin="round" d="M8.5 2.5h15"/><circle fill="#004DF5" cx="2.5" cy="2.5" r="2.5"/></g><g stroke="#004DF5" stroke-linecap="round" stroke-linejoin="round" stroke-width="2"><path d="M11 19h23M11 24h18"/></g><path stroke="#CEDAF3" stroke-width="2" fill="#CEDAF3" stroke-linejoin="round" d="M11 29h4v4h-4zM27 29h4v4h-4z"/><g stroke-linecap="round"><path stroke="#3DBB56" stroke-width="2" fill="#3DBB56" stroke-linejoin="round" d="M19 29h4v4h-4z"/><path stroke="#FFF" d="M19.748 30.871l.963.936 1.657-2.059"/></g><g><g transform="translate(10 38)"><path stroke="#004DF5" stroke-width="3" stroke-linecap="round" stroke-linejoin="round" d="M8.5 2.5h15"/><circle fill="#004DF5" cx="2.5" cy="2.5" r="2.5"/></g><g stroke="#004DF5" stroke-linecap="round" stroke-linejoin="round" stroke-width="2"><path d="M11 47h23M11 52h18"/></g></g><g transform="translate(23 14)"><path d="M23.575 25.904l2.829-2.829 12.728 12.728a2 2 0 11-2.829 2.829L23.575 25.904h0z" stroke="#041F74" stroke-width="2" fill="#004DF5" stroke-linejoin="round"/><path d="M19.333 25.904l7.07-7.071 3.536 3.535a3 3 0 010 4.243l-2.828 2.828a3 3 0 01-4.243 0l-3.535-3.535z" fill="#041F74"/><circle stroke="#041F74" stroke-width="3" cx="14" cy="14" r="12.5"/><circle fill-opacity=".7" fill="#3DBB56" cx="14" cy="14" r="11"/><path stroke="#FFF" stroke-width="3" stroke-linecap="round" d="M9.5 14.5l4 4 6-8"/></g></g></svg>
