<svg width="64" height="64" xmlns="http://www.w3.org/2000/svg"><g fill="none" fill-rule="evenodd"><path d="M51.836 31.5l10.662 18.253-60.561.747 9.792-18.747 40.107-.253z" stroke="#041F74" stroke-width="3" fill="#929DAF"/><path d="M52 1.5l.5 29.5-40.5.5L11.5 2 52 1.5z" stroke="#041F74" stroke-width="3" fill="#FFF"/><path fill="#CEDAF3" d="M13 3h38v3H13z"/><g transform="translate(23 7)"><path d="M2.182 13.753c1.599-1.28 4.738-1.016 6.475.442 1.48 1.242 3.906 1.447 5.47.687-.005-.037-2.107 1.99-5.851 1.933-3.744-.057-5.649-2.496-6.094-3.062z" fill="#3DBB56"/><path d="M3.402 13.348c0-1.35-.06-2.34.18-3.419.36-1.619 1.079-2.428.81-2.788-.27-.36-.9-.36-1.08-.18-.18.18-.27-.18 0-.45s.9-.81 1.799-.9c.9-.09.9.09 1.619-.45.72-.539 2.879-1.528 5.127-.539 2.25.99 2.07 1.71 2.34 1.89.27.179.629.269.54.539-.077.229-.51.18-.99 0 .54.3.81.54.81.72 0 .27-.27.18-.9 0s-2.25-.27-3.239.36c-.99.629-.45.54-.81 1.169-.36.63-1.079.99-1.529.99-.45 0-.496-.134-.09-.54.27-.27.45-.48.27-.9-1.529.72-2.968 2.249-3.238 4.408-.164 1.31-1.62 1.416-1.62.09z" fill="#3DBB56"/><circle stroke="#3DBB56" stroke-width="2" cx="8.5" cy="8.5" r="7.5"/></g><g stroke="#041F74" stroke-linecap="round" stroke-linejoin="round" stroke-width="2"><path d="M15 36h34M13 40h38M11 44h42"/></g><g><path d="M45 41.5l.5 20.5-26.5.5-.5-20.5 26.5-.5z" stroke="#041F74" stroke-width="3" fill="#3DBB56"/><path d="M32 47a3 3 0 011.843 5.367L35 57h-6l1.158-4.632A3 3 0 0132 47z" fill="#041F74"/><path d="M23.5 41.5v-11a4 4 0 014-4h9a4 4 0 014 4v11h0" stroke="#041F74" stroke-width="3"/></g></g></svg>
