<svg width="64" height="64" xmlns="http://www.w3.org/2000/svg"><g stroke-width="3" fill="none" fill-rule="evenodd"><path stroke="#041F74" fill="#004DF5" stroke-linejoin="round" d="M43.6 54.914l11.314-11.313 8.485 8.485-8.07 3.242-3.243 8.071z"/><path stroke="#041F74" fill="#004DF5" stroke-linejoin="round" d="M31 58.334l-5.95 2.58-4.51-4.66-6.485.106-2.383-6.032-6.032-2.383.106-6.485-4.66-4.51L3.666 31l-2.58-5.95 4.66-4.51-.106-6.485 6.032-2.383 2.383-6.032 6.485.106 4.51-4.66L31 3.666l5.95-2.58 4.51 4.66 6.485-.106 2.383 6.032 6.032 2.383-.106 6.485 4.66 4.51-2.58 5.95 2.58 5.95-4.66 4.51.106 6.485-6.032 2.383-2.383 6.032-6.485-.106-4.51 4.66z"/><circle stroke="#041F74" fill="#3DBB56" stroke-linejoin="round" cx="31" cy="31" r="20.5"/><path stroke="#FFF" stroke-linecap="round" d="M22.25 32.31l7.016 7.016L40.493 23.89"/></g></svg>
