<svg width="64" height="64" xmlns="http://www.w3.org/2000/svg"><g fill="none" fill-rule="evenodd" stroke="#041F74"><g stroke-linecap="round"><path stroke-width="3" d="M1.5 54.5h61"/><path stroke-width="2" d="M9 63h46M5 59h53"/></g><rect stroke-width="3" fill="#FFF" x="16.5" y="6.5" width="31" height="48" rx="2"/><path stroke-width="2" d="M18 13h28M18 19h28M18 25h28M18 31h28M18 37h28"/><path d="M40.368 35.5H53l.5 18.5-42.5.5-.5-18.5 13.132-.5a8.48 8.48 0 002.358 4.51A8.473 8.473 0 0032 42.5a8.473 8.473 0 006.01-2.49 8.48 8.48 0 002.358-4.51h0z" stroke-width="3" fill="#3DBB56"/><g stroke-linecap="round" stroke-width="3"><path d="M57.5 1.5v26M62.5 22.5l-5 5-5-5"/></g></g></svg>
