<svg width="26" height="24" viewBox="0 0 26 24" xmlns="http://www.w3.org/2000/svg">
    <path d="M8.19 23.2c9.826 0 15.2-8.08 15.2-15.087 0-.23 0-.458-.015-.685a10.825 10.825 0 0 0 2.665-2.745c-.975.429-2.01.71-3.069.834a5.328 5.328 0 0 0 2.35-2.932 10.756 10.756 0 0 1-3.393 1.287 5.377 5.377 0 0 0-6.419-1.044 5.293 5.293 0 0 0-2.686 5.88 15.207 15.207 0 0 1-11.01-5.54 5.282 5.282 0 0 0 1.653 7.078 5.333 5.333 0 0 1-2.424-.664v.067c0 2.524 1.793 4.698 4.286 5.198a5.373 5.373 0 0 1-2.413.091 5.344 5.344 0 0 0 4.992 3.682A10.772 10.772 0 0 1 0 20.818a15.209 15.209 0 0 0 8.19 2.378" fill="#FFF" fill-rule="nonzero"/>
</svg>
