<svg width="46" height="46" xmlns="http://www.w3.org/2000/svg"><g fill="none" fill-rule="evenodd"><path d="M32.21 42.91C29.06 38.242 22.09 35 14 35c-2.717 0-5.307.366-7.669 1.028" stroke="#004DF5" fill="#FFF" stroke-linejoin="round"/><path d="M25.935 25.919v5.9a2.143 2.143 0 00-.004 3.518 5.517 5.517 0 01-11.028-.225l.002.081a4.596 4.596 0 00-.002-8.131v-1.143h11.032z" stroke="#004DF5" fill="#FFF" stroke-linejoin="round"/><g transform="translate(10 6)"><circle stroke="#004DF5" fill="#004DF5" stroke-linejoin="round" cx="5.516" cy="11.645" r="5.516"/><circle stroke="#004DF5" fill="#004DF5" stroke-linejoin="round" cx="13.177" cy="7.048" r="7.048"/><path d="M19.919 7.967c3.983 0 4.903 9.086 4.903 12.564a9.193 9.193 0 01-18.387 0c0-1.168-1.271-2.318-.874-3.396a6.72 6.72 0 01.422-.919 5.21 5.21 0 118.877-5.457c.258-.022.515-.034.768-.034 1.6 0 2.299-2.758 4.29-2.758z" stroke="#004DF5" fill="#FFF" stroke-linejoin="round"/><circle stroke="#004DF5" fill="#004DF5" stroke-linejoin="round" cx="19.306" cy="7.661" r="5.516"/><path d="M15.628 29.725c-4.756 0-8.669-3.613-9.144-8.244l-.049-.03c1.532.92 4.444 3.677 5.823 1.838-.154 3.065 2.451 3.678 5.056 3.371 2.605-.306 4.75-1.992 4.443-4.29 1.839.766 3.065-.153 3.065-1.839a9.193 9.193 0 01-9.194 9.194z" stroke="#004DF5" fill="#004DF5" stroke-linejoin="round"/><path d="M7.006 20.753a2.145 2.145 0 11.264-3.022" stroke="#004DF5" fill="#FFF" stroke-linecap="round" stroke-linejoin="round"/><circle fill="#004DF5" cx="20.838" cy="16.643" r="1"/><circle fill="#004DF5" cx="13.177" cy="17.256" r="1"/><circle stroke="#004DF5" stroke-linecap="round" stroke-linejoin="round" cx="12.717" cy="17.314" r="2.758"/><path d="M21.757 22.677c0-1.524-2.145-2.299-3.774-1.336-1.015.407-2.192.11-3.112.11-.919 0-2.758.766-2.604 2.758" stroke="#004DF5" stroke-linecap="round" stroke-linejoin="round"/><circle stroke="#004DF5" stroke-linecap="round" stroke-linejoin="round" cx="20.685" cy="16.701" r="2.758"/><path d="M17.865 16.503a1.831 1.831 0 00-1.164-.415c-.505 0-.962.204-1.295.533M24.209 15.016l-.92.612" stroke="#004DF5" stroke-linecap="round" stroke-linejoin="round"/><path d="M13.807 23.777c.637-1.043 1.079-1.002 1.65-.91.469.076 1.062.179 1.68.092.663-.093 1.183-.29 1.568-.435.358-.135.632-.22.82-.221.873.758.765 1.124.552 1.516a2.895 2.895 0 01-.673.804 3.772 3.772 0 01-1.915.843c-.894.126-1.732.023-2.365-.234-.769-.312-1.231-.845-1.317-1.455z" stroke="#004DF5" fill="#FFF" stroke-linecap="round" stroke-linejoin="round"/></g><path stroke="#004DF5" stroke-linecap="round" stroke-linejoin="round" d="M19.806 22.854l-3.677-.613"/><circle stroke="#004DF5" stroke-width="2" cx="23" cy="23" r="22"/></g></svg>
