<svg width="46" height="46" xmlns="http://www.w3.org/2000/svg"><g fill="none" fill-rule="evenodd"><g transform="matrix(-1 0 0 1 39.5 7)"><path d="M16.429.257c7.18 0 13.183 5.046 14.654 11.785h.043l3.747 16.063c-.26.393-.531.777-.815 1.152H0l2.533-8.488c-.712-1.658-1.104-3.51-1.104-5.512 0-8.284 6.715-15 15-15z" stroke="#929DAF" fill="#929DAF" stroke-linejoin="round"/><path d="M29.945 32.931C26.53 31.096 22.205 30 17.5 30c-5.402 0-10.304 1.446-13.903 3.795" stroke="#929DAF" fill="#FFF" stroke-linejoin="round"/><path d="M21.559 23.342l-.146.141a6.025 6.025 0 00-1.77 4.274c0 1.358.447 2.61 1.203 3.62-1.018 3.417-7.774 2.82-8.216.387a4.533 4.533 0 00-3.889-7.32c.157-.258.409-.514.778-.767 2.089-1.426 6.102-1.538 12.04-.335z" stroke="#929DAF" fill="#FFF" stroke-linejoin="round"/><path d="M14.505 27.153a9.066 9.066 0 009.066-9.066c0-.887-1.42-1.505-1.813-2.569-.495-1.34-.068-3.122-1.05-4.044a9.034 9.034 0 00-6.203-2.453c-2.72 0-5.16-1.825-6.82.072-1.398 1.595-2.245 6.706-2.245 8.994a9.066 9.066 0 009.065 9.066z" stroke="#929DAF" fill="#FFF" stroke-linejoin="round"/><path d="M22.514 20.01a2.115 2.115 0 10-.26-2.98" stroke="#929DAF" fill="#FFF" stroke-linecap="round" stroke-linejoin="round"/><circle fill="#929DAF" transform="rotate(70 16.07 17.142)" cx="16.069" cy="17.142" r="1"/><path d="M15.261 14.611c.302-.453 2.418-1.057 3.626 0M10.124 13.856c-1.008-.604-1.965-.705-2.871-.302M11.198 18.255c.012.148-.695.522-.777.777-.13.4.13.762 1.295 1.036M10.88 22.015c1.41.705 2.517.705 3.323 0" stroke="#929DAF" stroke-linecap="round" stroke-linejoin="round"/><circle fill="#929DAF" transform="rotate(-50 8.886 16.377)" cx="8.886" cy="16.377" r="1"/><path d="M6.195 7.056c.756 2.57 3.606 6.196 8.613 6.196s6.346 2.115 6.346 4.835c0 1.3 2.716-2.646 1.85-7.12-.946-4.888-5.582-7.386-8.196-7.386" stroke="#929DAF" fill="#929DAF" stroke-linecap="round" stroke-linejoin="round"/></g><circle stroke="#929DAF" stroke-width="2" cx="23" cy="23" r="22"/></g></svg>
